<svg xmlns="http://www.w3.org/2000/svg" width="40" height="24" viewBox="0 0 40 24">
    <path fill="#FFF" d="M32.303 8.881c-.673 0-1.346.083-1.977.248L26.961.496c-.126-.29-.42-.496-.757-.496h-2.65c-.42 0-.799.33-.799.785 0 .454.336.785.8.785h2.102l1.472 3.759H15.521l-.337-.868c.8-.124 1.514-.248 1.64-.289.337-.041.673-.289.673-.66v-.373c0-.165-.126-.289-.294-.289h-5.174c-.294 0-.504.207-.504.496 0 0-.084 1.735.673 1.611.252-.041.757-.124 1.388-.248l.504 1.28L11.4 9.79c-1.094-.578-2.356-.909-3.702-.909C3.45 8.881 0 12.27 0 16.441S3.449 24 7.697 24c3.954 0 7.235-2.974 7.655-6.775h3.744c.252 0 .462-.082.589-.289l8.243-9.46.884 2.231c-2.482 1.24-4.206 3.8-4.206 6.734 0 4.172 3.449 7.559 7.697 7.559S40 20.613 40 16.44c0-4.171-3.449-7.559-7.697-7.559zM7.739 22.431c-3.365 0-6.099-2.686-6.099-5.99 0-3.305 2.734-5.99 6.1-5.99 1.009 0 1.934.248 2.775.66l-3.449 4.875c-.168.248-.168.537-.042.826.126.248.42.413.715.413h6.057c-.42 2.933-2.986 5.205-6.057 5.205zm1.514-6.775l2.566-3.677c1.052.95 1.767 2.231 1.977 3.677H9.253zm6.141 0c-.21-1.983-1.177-3.718-2.65-4.957l2.061-2.933 3.155 7.89h-2.566zm3.996-.744l-3.239-8.055h10.221l-6.982 8.055z"/>
</svg>
