<svg xmlns="http://www.w3.org/2000/svg" width="35" height="25" viewBox="0 0 35 25">
    <g fill="none" fill-rule="evenodd">
        <rect width="35" height="25" fill="#2183CB" rx="3.316"/>
        <path fill="#FFF" d="M18.772 5.225c3.998-.063 7.247 3.226 7.31 7.276v.063c-.126 3.986-3.312 7.213-7.31 7.213h-2.561c-3.873-.064-6.997-3.29-6.997-7.213-.125-3.923 2.874-7.213 6.685-7.34h2.873zM16.398 6.49c-3.248 0-5.934 2.72-5.934 6.01 0 3.29 2.686 6.011 5.934 6.011 3.249 0 5.935-2.72 5.935-6.01 0-3.29-2.686-6.01-5.935-6.01zm.937 2.025c2.187.57 3.561 2.784 2.999 4.998-.375 1.518-1.5 2.657-2.999 3.037V8.515zm-1.874 0v8.035c-2.186-.57-3.498-2.847-2.936-5.062.375-1.455 1.5-2.594 2.936-2.973z"/>
    </g>
</svg>
