<svg xmlns="http://www.w3.org/2000/svg" width="18" height="15" viewBox="0 0 18 15">
    <path fill="#FFF" d="M1.286 0C.576 0 0 .584 0 1.304c0 .72.576 1.305 1.286 1.305h15.428c.71 0 1.286-.584 1.286-1.305C18 .584 17.424 0 16.714 0H1.286zm0 6.087C.576 6.087 0 6.671 0 7.391c0 .72.576 1.305 1.286 1.305h15.428c.71 0 1.286-.584 1.286-1.305 0-.72-.576-1.304-1.286-1.304H1.286zm0 6.087c-.71 0-1.286.584-1.286 1.304 0 .72.576 1.305 1.286 1.305h15.428c.71 0 1.286-.584 1.286-1.305 0-.72-.576-1.304-1.286-1.304H1.286z"/>
</svg>
