<svg xmlns="http://www.w3.org/2000/svg" width="35" height="25" viewBox="0 0 35 25">
    <g fill="none" fill-rule="evenodd">
        <rect width="35" height="25" fill="#353A48" rx="3.316"/>
        <g>
            <path fill="#FF5E00" d="M15.842.127c3.764 0 6.816 3.09 6.816 6.903 0 3.812-3.052 6.903-6.816 6.903-1.687 0-3.23-.62-4.421-1.65-1.19 1.029-2.734 1.65-4.421 1.65-3.764 0-6.816-3.09-6.816-6.903C.184 3.218 3.236.127 7 .127c1.687 0 3.232.621 4.422 1.65 1.19-1.03 2.733-1.65 4.42-1.65z" transform="translate(6.263 5.597)"/>
            <path fill="#ED0006" d="M7 .127c1.687 0 3.232.621 4.422 1.65-1.466 1.265-2.396 3.15-2.396 5.253 0 2.104.93 3.988 2.395 5.254-1.19 1.028-2.734 1.649-4.421 1.649-3.764 0-6.816-3.09-6.816-6.903C.184 3.218 3.236.127 7 .127z" transform="translate(6.263 5.597)"/>
            <path fill="#F9A000" d="M15.842.127c3.764 0 6.816 3.09 6.816 6.903 0 3.812-3.052 6.903-6.816 6.903-1.687 0-3.231-.621-4.421-1.65 1.466-1.266 2.395-3.15 2.395-5.253 0-2.104-.93-3.987-2.394-5.254C12.61.748 14.155.127 15.842.127z" transform="translate(6.263 5.597)"/>
        </g>
    </g>
</svg>
