<svg xmlns="http://www.w3.org/2000/svg" width="35" height="25" viewBox="0 0 35 25">
    <g fill="none" fill-rule="evenodd">
        <rect width="35" height="25" fill="#224DBA" rx="3.316"/>
        <path fill="#FFF" d="M11.925 16.674H9.874l-1.538-6c-.073-.276-.228-.52-.456-.635C7.311 9.75 6.684 9.52 6 9.404v-.231h3.304c.456 0 .798.347.855.75l.798 4.328 2.05-5.078h1.994l-3.076 7.501zm4.216 0h-1.937l1.595-7.501h1.937l-1.595 7.501zm4.101-5.423c.057-.404.399-.635.798-.635.627-.058 1.31.058 1.88.346l.342-1.615C22.692 9.116 22.065 9 21.496 9c-1.88 0-3.248 1.039-3.248 2.481 0 1.097.969 1.673 1.653 2.02.74.346 1.025.577.968.923 0 .519-.57.75-1.139.75-.684 0-1.368-.173-1.994-.462l-.342 1.616c.684.288 1.424.404 2.108.404 2.108.057 3.418-.981 3.418-2.539 0-1.962-2.678-2.077-2.678-2.942zm9.457 5.423l-1.538-7.501h-1.652c-.342 0-.684.231-.798.577l-2.848 6.924h1.994l.398-1.096h2.45l.228 1.096h1.766zm-2.905-5.481l.569 2.827h-1.595l1.026-2.827z"/>
    </g>
</svg>
